<?xml version="1.0" encoding="UTF-8"?>
<svg width="484px" height="484px" viewBox="0 0 484 484" version="1.1" xmlns="http://www.w3.org/2000/svg" xmlns:xlink="http://www.w3.org/1999/xlink">
    <!-- Generator: Sketch 43.2 (39069) - http://www.bohemiancoding.com/sketch -->
    <title>Group 2</title>
    <desc>Created with Sketch.</desc>
    <defs></defs>
    <g id="Page-1" stroke="none" stroke-width="1" fill="none" fill-rule="evenodd">
        <g id="Group-2">
            <g id="Group" transform="translate(242.000000, 242.000000) rotate(90.000000) translate(-242.000000, -242.000000) " fill-rule="nonzero">
                <polygon id="XMLID_2_" fill="#806EE3" points="0 484 242.806667 241.193333 484 484"></polygon>
                <polygon id="Shape" fill="#806EE3" points="0 0 242.806667 0 0 262.166667"></polygon>
                <polygon id="Shape" fill="#F88909" points="242.806667 0 0 255.713333 0 484 242.806667 241.193333 484 0"></polygon>
            </g>
            <path d="M309.511415,102.784112 C321.783415,111.236112 325.439415,133.444112 306.498415,138.329112 C305.765415,138.517112 305.050415,138.669112 304.352415,138.785112 L344.520415,178.953112 C344.635415,178.255112 344.788415,177.540112 344.977415,176.807112 C349.860415,157.864112 372.069415,161.522112 380.520415,173.793112 C388.955415,186.037112 386.563415,203.380112 370.759415,212.199112 C358.948415,218.789112 342.519415,219.055112 324.753415,200.839112 L282.467415,158.552112 C264.249415,140.786112 264.516415,124.356112 271.105415,112.546112 C279.926415,96.7431123 297.269415,94.3511123 309.511415,102.784112" id="Fill-1" fill="#9B9B9B"></path>
            <path d="M309.511415,102.784112 C321.783415,111.236112 325.439415,133.444112 306.498415,138.329112 C305.765415,138.517112 305.050415,138.669112 304.352415,138.785112 L344.520415,178.953112 C344.635415,178.255112 344.788415,177.540112 344.977415,176.807112 C349.860415,157.864112 372.069415,161.522112 380.520415,173.793112 C388.955415,186.037112 386.563415,203.380112 370.759415,212.199112 C358.948415,218.789112 342.519415,219.055112 324.753415,200.839112 L282.467415,158.552112 C264.249415,140.786112 264.516415,124.356112 271.105415,112.546112 C279.926415,96.7431123 297.269415,94.3511123 309.511415,102.784112 Z M368.310415,181.252112 C371.053415,204.797112 340.928415,200.510112 344.521415,178.952112 L368.310415,181.252112 Z M302.053415,114.996112 C278.508415,112.252112 282.794415,142.377112 304.353415,138.785112 L302.053415,114.996112 Z" id="Stroke-2" stroke="#404E4E" stroke-width="4.343" stroke-linecap="round" stroke-linejoin="round"></path>
            <path d="M303.779067,180.131 L57.6050666,426.306 C57.6050666,426.306 52.4870666,405.162 72.0210666,385.628 L290.648067,167 L303.779067,180.131" id="Fill-4" fill="#9B9B9B"></path>
            <path d="M303.779067,180.131 L57.6050666,426.306 C57.6050666,426.306 52.4870666,405.162 72.0210666,385.628 L290.648067,167 L303.779067,180.131 Z" id="Stroke-5" stroke="#404E4E" stroke-width="4.343" stroke-linecap="round" stroke-linejoin="round"></path>
            <path d="M303.174,180 L57,426.175 C57,426.175 78.144,431.293 97.677,411.759 L316.305,193.131 L303.174,180" id="Fill-7" fill="#9B9B9B"></path>
            <path d="M303.174,180 L57,426.175 C57,426.175 78.144,431.293 97.677,411.759 L316.305,193.131 L303.174,180 Z" id="Stroke-8" stroke="#404E4E" stroke-width="4.343" stroke-linecap="round" stroke-linejoin="round"></path>
            <polyline id="Fill-10" fill="#9B9B9B" points="337.262 171.987 377.987 131.262 351.725 105 311 145.725 337.262 171.987"></polyline>
            <path d="M337.262,171.987 L377.987,131.262 L351.725,105 L311,145.725 L337.262,171.987 Z M345.04,164.208 L318.778,137.946 L345.04,164.208 Z M353.277,155.971 L327.015,129.709 L353.277,155.971 Z M361.513,147.735 L335.251,121.473 L361.513,147.735 Z M369.75,139.498 L343.488,113.236 L369.75,139.498 Z" id="Stroke-11" stroke="#404E4E" stroke-width="4.343" stroke-linecap="round" stroke-linejoin="round"></path>
            <polyline id="Fill-12" fill="#9B9B9B" points="378.262 131.987 418.987 91.262 392.725 65 352 105.725 378.262 131.987"></polyline>
            <path d="M378.262,131.987 L418.987,91.262 L392.725,65 L352,105.725 L378.262,131.987 Z M386.04,124.208 L359.778,97.946 L386.04,124.208 Z M394.277,115.971 L368.015,89.709 L394.277,115.971 Z M402.513,107.735 L376.251,81.473 L402.513,107.735 Z M410.75,99.498 L384.488,73.236 L410.75,99.498 Z" id="Stroke-14" stroke="#404E4E" stroke-width="4.343" stroke-linecap="round" stroke-linejoin="round"></path>
            <path d="M392.30375,58.305 C390.56475,60.044 390.56575,62.863 392.30475,64.602 L418.22475,90.522 C419.96375,92.261 422.78375,92.262 424.52275,90.523 C426.26275,88.783 426.26075,85.963 424.52275,84.225 L398.60275,58.305 C396.86275,56.565 394.04375,56.565 392.30375,58.305" id="Fill-15" fill="#9B9B9B"></path>
            <path d="M392.30375,58.305 C390.56475,60.044 390.56575,62.863 392.30475,64.602 L418.22475,90.522 C419.96375,92.261 422.78375,92.262 424.52275,90.523 C426.26275,88.783 426.26075,85.963 424.52275,84.225 L398.60275,58.305 C396.86275,56.565 394.04375,56.565 392.30375,58.305 Z" id="Stroke-16" stroke="#404E4E" stroke-width="4.343" stroke-linecap="round" stroke-linejoin="round"></path>
            <path d="M406.655625,58.656375 C404.447625,60.864375 404.448625,64.443375 406.655625,66.650375 L416.589625,76.584375 C418.795625,78.791375 422.376625,78.792375 424.584625,76.584375 C426.792625,74.376375 426.790625,70.796375 424.584625,68.589375 L414.650625,58.656375 C412.443625,56.448375 408.863625,56.447375 406.655625,58.656375" id="Fill-18" fill="#9B9B9B"></path>
            <path d="M406.655625,58.656375 C404.447625,60.864375 404.448625,64.443375 406.655625,66.650375 L416.589625,76.584375 C418.795625,78.791375 422.376625,78.792375 424.584625,76.584375 C426.792625,74.376375 426.790625,70.796375 424.584625,68.589375 L414.650625,58.656375 C412.443625,56.448375 408.863625,56.447375 406.655625,58.656375 Z" id="Stroke-19" stroke="#404E4E" stroke-width="4.343" stroke-linecap="round" stroke-linejoin="round"></path>
            <path d="M173.794567,102.784112 C161.522567,111.236112 157.866567,133.444112 176.807567,138.329112 C177.540567,138.517112 178.255567,138.669112 178.953567,138.785112 L138.785567,178.953112 C138.670567,178.255112 138.517567,177.540112 138.328567,176.807112 C133.445567,157.864112 111.236567,161.522112 102.785567,173.793112 C94.3505672,186.037112 96.7425672,203.380112 112.546567,212.199112 C124.357567,218.789112 140.786567,219.055112 158.552567,200.839112 L200.838567,158.552112 C219.056567,140.786112 218.789567,124.356112 212.200567,112.546112 C203.379567,96.7431123 186.036567,94.3511123 173.794567,102.784112" id="Fill-21" fill="#9B9B9B"></path>
            <path d="M173.794567,102.784112 C161.522567,111.236112 157.866567,133.444112 176.807567,138.329112 C177.540567,138.517112 178.255567,138.669112 178.953567,138.785112 L138.785567,178.953112 C138.670567,178.255112 138.517567,177.540112 138.328567,176.807112 C133.445567,157.864112 111.236567,161.522112 102.785567,173.793112 C94.3505672,186.037112 96.7425672,203.380112 112.546567,212.199112 C124.357567,218.789112 140.786567,219.055112 158.552567,200.839112 L200.838567,158.552112 C219.056567,140.786112 218.789567,124.356112 212.200567,112.546112 C203.379567,96.7431123 186.036567,94.3511123 173.794567,102.784112 Z M114.995567,181.252112 C112.252567,204.797112 142.377567,200.510112 138.784567,178.952112 L114.995567,181.252112 Z M181.252567,114.996112 C204.797567,112.252112 200.511567,142.377112 178.952567,138.785112 L181.252567,114.996112 Z" id="Stroke-22" stroke="#404E4E" stroke-width="4.343" stroke-linecap="round" stroke-linejoin="round"></path>
            <path d="M180,180.131 L426.174,426.306 C426.174,426.306 431.292,405.162 411.758,385.628 L193.131,167 L180,180.131" id="Fill-24" fill="#9B9B9B"></path>
            <path d="M180,180.131 L426.174,426.306 C426.174,426.306 431.292,405.162 411.758,385.628 L193.131,167 L180,180.131 Z" id="Stroke-25" stroke="#404E4E" stroke-width="4.343" stroke-linecap="round" stroke-linejoin="round"></path>
            <path d="M180.131,180 L426.305,426.175 C426.305,426.175 405.161,431.293 385.627,411.759 L167,193.131 L180.131,180" id="Fill-27" fill="#9B9B9B"></path>
            <path d="M180.131,180 L426.305,426.175 C426.305,426.175 405.161,431.293 385.627,411.759 L167,193.131 L180.131,180 Z" id="Stroke-28" stroke="#404E4E" stroke-width="4.343" stroke-linecap="round" stroke-linejoin="round"></path>
            <polyline id="Fill-30" fill="#9B9B9B" points="145.725 171.987 105 131.262 131.262 105 171.987 145.725 145.725 171.987"></polyline>
            <path d="M145.725,171.987 L105,131.262 L131.262,105 L171.987,145.725 L145.725,171.987 Z M137.947,164.208 L164.209,137.946 L137.947,164.208 Z M129.71,155.971 L155.972,129.709 L129.71,155.971 Z M121.474,147.735 L147.735,121.473 L121.474,147.735 Z M113.237,139.498 L139.499,113.236 L113.237,139.498 Z" id="Stroke-31" stroke="#404E4E" stroke-width="4.343" stroke-linecap="round" stroke-linejoin="round"></path>
            <polyline id="Fill-32" fill="#9B9B9B" points="104.725 131.987 64 91.262 90.262 65 130.987 105.725 104.725 131.987"></polyline>
            <path d="M104.725,131.987 L64,91.262 L90.262,65 L130.987,105.725 L104.725,131.987 Z M96.947,124.208 L123.209,97.946 L96.947,124.208 Z M88.71,115.971 L114.972,89.709 L88.71,115.971 Z M80.474,107.735 L106.735,81.473 L80.474,107.735 Z M72.237,99.498 L98.499,73.236 L72.237,99.498 Z" id="Stroke-34" stroke="#404E4E" stroke-width="4.343" stroke-linecap="round" stroke-linejoin="round"></path>
            <path d="M90.5232501,58.305 C92.2622501,60.044 92.2612501,62.863 90.5212501,64.602 L64.6022501,90.522 C62.8632501,92.261 60.0432501,92.262 58.3042501,90.523 C56.5642501,88.783 56.5662501,85.963 58.3042501,84.225 L84.2242501,58.305 C85.9642501,56.565 88.7832501,56.565 90.5232501,58.305" id="Fill-35" fill="#9B9B9B"></path>
            <path d="M90.5232501,58.305 C92.2622501,60.044 92.2612501,62.863 90.5212501,64.602 L64.6022501,90.522 C62.8632501,92.261 60.0432501,92.262 58.3042501,90.523 C56.5642501,88.783 56.5662501,85.963 58.3042501,84.225 L84.2242501,58.305 C85.9642501,56.565 88.7832501,56.565 90.5232501,58.305 Z" id="Stroke-36" stroke="#404E4E" stroke-width="4.343" stroke-linecap="round" stroke-linejoin="round"></path>
            <path d="M76.5842501,58.656375 C78.7922501,60.864375 78.7912501,64.443375 76.5842501,66.650375 L66.6502501,76.584375 C64.4442501,78.791375 60.8632501,78.792375 58.6552501,76.584375 C56.4472501,74.376375 56.4492501,70.796375 58.6552501,68.589375 L68.5892501,58.656375 C70.7962501,56.448375 74.3762501,56.447375 76.5842501,58.656375" id="Fill-38" fill="#9B9B9B"></path>
            <path d="M76.5842501,58.656375 C78.7922501,60.864375 78.7912501,64.443375 76.5842501,66.650375 L66.6502501,76.584375 C64.4442501,78.791375 60.8632501,78.792375 58.6552501,76.584375 C56.4472501,74.376375 56.4492501,70.796375 58.6552501,68.589375 L68.5892501,58.656375 C70.7962501,56.448375 74.3762501,56.447375 76.5842501,58.656375 Z" id="Stroke-39" stroke="#404E4E" stroke-width="4.343" stroke-linecap="round" stroke-linejoin="round"></path>
        </g>
    </g>
</svg>